HIERARCHY
ROOT Hips
{
  OFFSET 10.6522 105.283 -167.106
  CHANNELS 6 Xposition Yposition Zposition Zrotation Xrotation Yrotation
  JOINT RightUpLeg
  {
    OFFSET -8.9458 -8.66707 0.101652
    CHANNELS 3 Zrotation Xrotation Yrotation
    JOINT RightLeg
    {
      OFFSET 0 -44.4227 1.3727
      CHANNELS 3 Zrotation Xrotation Yrotation
      JOINT RightFoot
      {
        OFFSET 0.253549 -42.0924 -1.46059
        CHANNELS 3 Zrotation Xrotation Yrotation
        JOINT RightToes
        {
          OFFSET 0.04 -4.41509 8.4991
          CHANNELS 3 Zrotation Xrotation Yrotation
          End Site
          {
            OFFSET -0.08 -0.137448 9.77979
          }
        }
      }
    }
  }
  JOINT Spine
  {
    OFFSET 0 11.8905 0
    CHANNELS 3 Zrotation Xrotation Yrotation
    JOINT Spine1
    {
      OFFSET 0 25.6574 0.127663
      CHANNELS 3 Zrotation Xrotation Yrotation
      JOINT HEad
      {
        OFFSET 0 8.73416 0.011341
        CHANNELS 3 Zrotation Xrotation Yrotation
        End Site
        {
          OFFSET -0.29 12.7742 2.51395
        }
      }
      JOINT LeftShoulder1
      {
        OFFSET 8.99 -0.362252 -0.22
        CHANNELS 3 Zrotation Xrotation Yrotation
        JOINT LeftArm
        {
          OFFSET 10.2827 -0.00338 0.322123
          CHANNELS 3 Zrotation Xrotation Yrotation
          JOINT LeftForeArm
          {
            OFFSET 32.7669 0.099144 -1.42434
            CHANNELS 3 Zrotation Xrotation Yrotation
            JOINT LeftHand
            {
              OFFSET 27.5643 0.085362 1.02216
              CHANNELS 3 Zrotation Xrotation Yrotation
              End Site
              {
                OFFSET 16.7443 -0.6 1.50291
              }
            }
          }
        }
      }
      JOINT RightShoulder
      {
        OFFSET -8.99 -0.362252 -0.22
        CHANNELS 3 Zrotation Xrotation Yrotation
        JOINT RightArm
        {
          OFFSET -10.2827 -0.00338 0.322123
          CHANNELS 3 Zrotation Xrotation Yrotation
          JOINT RightForeArm
          {
            OFFSET -32.8971 0.099144 -1.42434
            CHANNELS 3 Zrotation Xrotation Yrotation
            JOINT RightHand
            {
              OFFSET -27.4921 0.085362 1.02216
              CHANNELS 3 Zrotation Xrotation Yrotation
              End Site
              {
                OFFSET -16.6312 -0.6 1.50291
              }
            }
          }
        }
      }
    }
  }
  JOINT LeftUpLeg
  {
    OFFSET 8.9458 -8.66707 0.101652
    CHANNELS 3 Zrotation Xrotation Yrotation
    JOINT LeftLeg
    {
      OFFSET 0 -44.4227 1.3727
      CHANNELS 3 Zrotation Xrotation Yrotation
      JOINT LeftFoot
      {
        OFFSET -0.253549 -42.0924 -1.46059
        CHANNELS 3 Zrotation Xrotation Yrotation
        JOINT LeftToes
        {
          OFFSET -0.04 -4.41509 8.4991
          CHANNELS 3 Zrotation Xrotation Yrotation
          End Site
          {
            OFFSET 0.08 -0.047448 9.77979
          }
        }
      }
    }
  }
}
MOTION
Frames:	14
Frame Time:	0.0166667
6.74368 102.711 135.533 -0.037585 0.0479652 178.928 6.27279 12.8829 0.0715308 3.09944 25.6933 -19.6974 13.3061 -6.39302 0.155501 0.0462048 0.000533964 0.662642 0.448485 1.54445 -0.877291 -2.32101 -2.33038 -0.458426 2.73349 0.384583 8.8265 -3.97569e-016 0 -0 -91.5848 -26.3861 -20.0639 -24.8133 9.27667 9.8542 0.368473 9.90896 -0.00117926 -3.64728 0.547387 6.89382 95.4651 -22.4325 16.1759 20.0864 13.2597 7.13235 -0.369625 9.91382 0.00119886 -4.08882 -29.5645 0.513561 2.20842 24.8555 14.359 2.93073 2.90299 -0.0812555 -1.19058e-011 2.47016e-011 -8.68609e-012 
6.50982 102.96 133.069 -0.683953 0.649286 179.052 4.79071 11.9413 0.320169 3.71218 29.7355 -21.4119 13.9626 -2.9823 -0.249181 3.84234 9.75119 3.33995 0.680458 1.50388 -1.07879 -3.31515 -1.83436 -0.438007 2.88064 0.297614 8.94321 8.69683e-017 0 -3.97569e-016 -91.6141 -26.088 -20.4803 -24.749 9.31356 9.74875 0.368473 9.90896 -0.00117926 -3.90224 0.528038 6.978 96.0578 -22.9721 15.5475 19.8514 13.158 6.51051 -0.369625 9.91382 0.00119886 -5.30848 -28.1718 -0.883601 2.04147 26.5153 14.5199 3.06157 1.2768 -0.0455656 0.7182 -0.454544 1.56052 
6.26976 103.222 130.678 -1.31183 1.22395 179.193 3.37131 10.6881 0.459388 4.39939 33.9227 -22.8854 14.6201 0.810786 -0.718577 6.3545 17.9577 5.45616 0.777005 1.49955 -1.25402 -4.18942 -1.33979 -0.412303 3.03799 0.294182 9.09604 1.98785e-016 3.97569e-016 -3.97569e-016 -91.6845 -25.6764 -20.9604 -24.6456 9.32724 9.78536 0.368473 9.90896 -0.00117926 -4.17643 0.50368 6.98824 96.5571 -23.4306 14.9379 19.6626 13.0488 5.86435 -0.369625 9.91382 0.00119886 -6.44169 -26.6547 -2.16798 1.85345 27.8571 14.7334 3.1977 -0.325301 -0.00799672 1.41468 -0.856865 3.02777 
5.99965 103.528 128.488 -1.87127 1.73481 179.398 2.10034 8.55666 0.211814 4.53977 38.8374 -23.0539 15.2035 5.99768 -1.41332 7.76293 22.3701 5.07879 0.485236 1.61843 -1.3631 -4.69669 -0.877266 -0.374005 3.21755 0.551594 9.36999 1.86361e-017 9.93923e-017 -0 -91.9002 -24.9093 -21.6693 -24.4145 9.26624 10.2786 0.368473 9.90896 -0.00117926 -4.5591 0.460962 6.80657 96.8421 -23.6625 14.3603 19.6053 12.9139 5.1117 -0.369625 9.91382 0.00119886 -7.47782 -24.7852 -3.08396 1.73759 28.2914 14.8692 3.36613 -1.87495 0.034561 2.00795 -1.10708 4.25311 
5.74623 103.829 126.413 -2.42947 2.18651 179.596 0.875939 6.00141 -0.00960436 4.46111 43.9045 -22.9653 15.9265 11.0668 -2.16203 8.47248 24.0072 4.23541 0.0246904 1.74468 -1.42073 -5.09836 -0.360754 -0.323717 3.41557 0.870685 9.65502 1.70831e-016 0 -3.97569e-016 -92.0956 -24.0651 -22.3646 -24.1638 9.1909 10.8527 0.368473 9.90896 -0.00117926 -4.86058 0.419751 6.4912 96.9704 -23.777 13.8697 19.6147 12.7823 4.40018 -0.369625 9.91382 0.00119886 -8.41777 -22.8223 -4.10733 1.39022 28.3186 15.4239 3.49962 -3.36089 0.080984 2.52125 -1.29962 5.30813 
5.55471 104.074 124.411 -3.09769 2.60661 179.699 -0.374959 3.32624 0.295811 4.65453 48.6321 -23.736 17.2974 15.2675 -2.96202 7.76676 22.3563 5.53586 -0.506417 1.77492 -1.41634 -5.63972 0.386509 -0.249887 3.62738 1.11251 9.8083 -6.33626e-016 4.96962e-017 1.19271e-015 -92.1451 -23.3833 -22.8516 -23.9945 9.15396 11.1819 0.368473 9.90896 -0.00117926 -4.91221 0.397656 6.05594 96.9986 -23.8158 13.5777 19.6461 12.6834 3.86544 -0.369625 9.91382 0.00119886 -9.2538 -20.9001 -5.90371 0.328179 28.2263 17.2745 3.49979 -4.7729 0.133473 2.93928 -1.47537 6.16535 
5.40582 104.29 122.47 -3.68527 2.88937 179.799 -1.41942 0.418496 0.55579 5.35241 52.9716 -24.6398 17.9196 17.3403 -3.38193 6.85982 19.601 6.08243 -0.999497 1.75883 -1.38582 -6.12382 1.06171 -0.181716 3.88341 1.27632 10.0117 -6.22755e-016 2.48481e-017 -7.95139e-016 -92.1131 -22.7284 -23.1729 -23.8472 9.13064 11.4314 0.368473 9.90896 -0.00117926 -4.7387 0.388246 5.516 96.7955 -23.8418 13.3241 19.7335 12.604 3.45904 -0.369625 9.91382 0.00119886 -9.82997 -19.1249 -7.57777 -0.830846 28.0006 19.1714 3.4866 -6.07945 0.185147 3.32603 -1.69472 6.97365 
5.30809 104.499 120.563 -4.01384 2.87626 179.971 -2.11169 -2.82181 0.147164 6.82033 56.8781 -24.6627 15.7467 14.6081 -2.65976 6.54302 18.2284 2.96033 -1.26832 1.70448 -1.37649 -6.44787 1.31977 -0.153087 4.26758 1.32362 10.4989 2.76435e-016 0 1.98785e-016 -91.9895 -22.0392 -23.2793 -23.6826 9.109 11.6915 0.368473 9.90896 -0.00117926 -4.22822 0.397439 4.8887 96.1738 -23.9464 12.9624 19.9085 12.5344 3.15527 -0.369625 9.91382 0.00119886 -10.0655 -17.7391 -8.36484 -1.62527 27.7579 20.0567 3.52819 -7.19805 0.224585 3.68453 -2.04852 7.7449 
5.22333 104.673 118.689 -4.16001 2.75316 -179.825 -2.62359 -6.12969 -0.261904 8.38672 59.989 -24.8613 13.2395 10.5823 -1.74157 6.07223 16.6739 -0.743915 -1.44669 1.63338 -1.34344 -6.56572 1.46424 -0.138305 4.61327 1.22829 10.9714 -1.34956e-015 0 -0 -91.8679 -21.3301 -23.2539 -23.5399 9.10243 11.8611 0.368473 9.90896 -0.00117926 -3.6209 0.405866 4.18152 95.3478 -24.0817 12.5583 20.1313 12.4916 3.0222 -0.369625 9.91382 0.00119886 -10.1684 -16.5233 -8.68233 -2.10986 27.5754 20.2751 3.67854 -8.2715 0.267171 4.21225 -2.48175 8.86426 
5.10891 104.782 116.844 -4.10004 2.6517 -179.59 -2.88741 -9.27957 -0.0780309 9.92963 61.764 -26.73 12.3558 8.4052 -1.38473 5.08672 14.1476 -2.36486 -1.58824 1.56552 -1.24772 -6.33785 1.69766 -0.122542 4.71835 0.904872 11.1055 -1.20824e-015 -1.98785e-016 1.98785e-016 -91.8445 -20.5973 -23.1145 -23.4659 9.13238 11.7939 0.368473 9.90896 -0.00117926 -3.1188 0.392012 3.36679 94.4185 -24.2162 12.1039 20.4021 12.494 3.1602 -0.369625 9.91382 0.00119886 -10.267 -15.3364 -8.56243 -2.07695 27.5881 19.53 4.14579 -9.42826 0.332598 5.35212 -3.05832 11.1975 
4.98665 104.852 115.023 -3.96201 2.57624 -179.365 -3.00228 -12.2533 0.323467 11.3566 62.5047 -28.9474 11.8854 6.55657 -1.1663 3.92083 11.3012 -3.78328 -1.74677 1.51346 -1.11879 -5.94553 1.97807 -0.107114 4.77355 0.493587 11.2117 3.16813e-016 -5.96354e-016 1.98785e-016 -91.8891 -19.8351 -23.0016 -23.3996 9.163 11.7158 0.368473 9.90896 -0.00117926 -2.72801 0.367937 2.56734 93.5405 -24.3912 11.6742 20.6311 12.5263 3.44687 -0.369625 9.91382 0.00119886 -10.3709 -14.1645 -8.34464 -1.86172 27.6737 18.6821 4.5415 -10.6288 0.3974 6.42665 -3.49219 13.318 
4.85623 104.899 113.223 -3.89073 2.59203 -179.194 -3.15032 -14.9511 0.738857 12.2321 62.4085 -30.4096 11.2428 4.47463 -0.914464 2.6515 8.5336 -6.32421 -2.02236 1.51524 -0.963556 -5.51885 2.34972 -0.0866214 4.94482 0.106219 11.6164 -9.38015e-016 0 -4.96962e-017 -92.0207 -19.014 -23.099 -23.2869 9.15867 11.8444 0.368473 9.90896 -0.00117926 -2.57709 0.336571 1.91758 92.9556 -24.6664 11.3339 20.7031 12.5907 3.8425 -0.369625 9.91382 0.00119886 -10.5123 -12.9484 -8.42053 -1.7516 27.7893 18.6935 4.42334 -11.927 0.440824 6.62233 -3.39565 13.676 
4.74144 104.931 111.438 -3.81607 2.64812 -179.054 -3.21755 -17.3905 1.23402 12.5028 61.5037 -31.2666 10.7095 2.41382 -0.690434 1.18054 5.68543 -8.88542 -2.33093 1.51441 -0.810635 -5.0723 2.75656 -0.0663688 5.11487 -0.255503 11.9467 1.19426e-015 3.97569e-016 4.96962e-017 -92.1518 -18.2149 -23.2816 -23.156 9.13969 12.0594 0.368473 9.90896 -0.00117926 -2.49882 0.304129 1.35511 92.5043 -24.9578 11.1075 20.6924 12.6534 4.19981 -0.369625 9.91382 0.00119886 -10.6158 -11.6999 -8.6314 -1.67867 27.877 18.9692 4.15463 -13.1711 0.473428 6.53435 -3.22215 13.4886 
4.67215 104.973 109.667 -3.71922 2.73416 -178.944 -3.14035 -19.5272 1.79487 12.107 59.8485 -31.4608 10.3707 0.243347 -0.485111 -0.364925 2.75992 -10.6424 -2.62804 1.45381 -0.692562 -4.67616 3.19944 -0.0473792 5.1488 -0.594267 11.7542 -1.2195e-015 -3.97569e-016 -4.96962e-017 -92.1972 -17.5261 -23.4932 -23.0104 9.10657 12.3147 0.368473 9.90896 -0.00117926 -2.35884 0.279899 0.880363 92.1248 -25.1923 11.086 20.6214 12.6763 4.32088 -0.369625 9.91382 0.00119886 -10.6213 -10.3729 -9.01236 -1.67284 27.8153 19.2603 3.96184 -14.1787 0.496154 6.50697 -3.31629 13.4461 
